<?xml version="1.0" standalone="no"?>
<!DOCTYPE svg PUBLIC "-//W3C//DTD SVG 20010904//EN"
 "http://www.w3.org/TR/2001/REC-SVG-20010904/DTD/svg10.dtd">
<svg version="1.0" xmlns="http://www.w3.org/2000/svg"
 width="682.000000pt" height="682.000000pt" viewBox="0 0 682.000000 682.000000"
 preserveAspectRatio="xMidYMid meet">
<metadata>
Created by potrace 1.14, written by Peter Selinger 2001-2017
</metadata>
<g transform="translate(0.000000,682.000000) scale(0.100000,-0.100000)"
fill="#000000" stroke="none">
<path d="M3145 5891 c2 -3 -27 -7 -63 -8 -37 -1 -93 -3 -124 -3 -32 -1 -58 -5
-58 -9 0 -4 -18 -6 -40 -5 -22 1 -40 -3 -40 -9 0 -5 -7 -4 -15 3 -8 7 -15 9
-15 4 0 -5 -12 -10 -28 -11 -15 -1 -40 -5 -57 -7 -16 -3 -48 -8 -70 -12 -22
-3 -45 -10 -51 -15 -6 -5 -14 -6 -17 -2 -4 3 -7 1 -7 -5 0 -7 -5 -12 -12 -12
-6 0 -19 -7 -28 -15 -9 -8 -41 -17 -71 -19 -47 -4 -82 -10 -99 -16 -3 -1 -8
-2 -12 -1 -5 0 -8 -3 -8 -8 0 -5 -13 -12 -30 -16 -16 -4 -30 -11 -30 -16 0 -6
-6 -9 -12 -8 -18 3 -49 -12 -44 -20 3 -4 -5 -8 -16 -8 -12 -1 -25 -8 -29 -15
-5 -7 -9 -9 -9 -5 0 4 -10 2 -22 -5 -13 -7 -26 -12 -30 -13 -4 0 -16 -8 -28
-17 -11 -10 -20 -16 -20 -14 0 2 -16 -11 -35 -30 -19 -18 -35 -35 -35 -38 0
-11 -38 -44 -44 -38 -3 3 -6 1 -6 -5 0 -5 -9 -21 -20 -34 -44 -53 -60 -65 -87
-63 -12 1 -20 -3 -17 -7 3 -5 0 -9 -5 -9 -19 0 -25 -3 -63 -26 -21 -13 -43
-24 -51 -24 -7 0 -19 -9 -26 -19 -8 -11 -21 -17 -29 -13 -10 3 -13 1 -8 -6 5
-8 0 -12 -13 -12 -11 0 -22 -9 -26 -20 -4 -11 -11 -18 -16 -15 -5 4 -9 0 -9
-7 0 -7 -13 -24 -30 -38 -16 -14 -30 -29 -30 -35 0 -6 -9 -17 -19 -24 -11 -8
-18 -23 -16 -33 2 -10 0 -16 -4 -13 -5 3 -15 -15 -22 -39 -7 -25 -16 -43 -20
-40 -4 2 -7 -4 -7 -13 0 -10 -3 -27 -7 -37 -7 -15 -5 -17 6 -11 11 7 12 6 3
-6 -14 -18 -17 -139 -2 -139 5 0 8 -7 5 -15 -4 -8 0 -27 8 -41 8 -15 12 -31
10 -35 -3 -4 2 -10 11 -13 8 -3 12 -10 9 -16 -3 -5 -1 -10 5 -10 6 0 8 -4 5
-10 -3 -5 -1 -10 4 -10 6 0 11 -4 11 -10 0 -9 25 -42 57 -76 15 -15 17 -28 4
-20 -5 4 -7 -3 -4 -13 3 -11 -3 -27 -14 -38 -10 -10 -20 -28 -21 -38 -2 -11
-9 -23 -15 -27 -9 -6 -8 -8 2 -8 9 0 10 -4 4 -12 -5 -7 -11 -31 -12 -53 -2
-22 -6 -44 -9 -50 -10 -16 -11 -35 -1 -41 5 -3 9 -10 9 -15 0 -6 -5 -7 -12 -3
-7 5 -8 3 -3 -7 13 -20 13 -49 1 -49 -7 0 -7 -3 -1 -8 16 -11 17 -42 3 -60 -7
-9 -8 -13 -2 -9 8 5 12 -15 13 -64 1 -40 5 -77 9 -83 3 -6 7 -18 7 -26 0 -8 4
-21 8 -27 5 -7 5 -13 1 -13 -3 0 -1 -7 6 -15 7 -8 9 -15 5 -15 -4 0 -1 -8 6
-17 12 -14 12 -15 1 -9 -12 7 -12 4 -1 -15 7 -13 14 -31 15 -39 4 -22 10 -42
21 -70 6 -14 9 -28 6 -32 -2 -5 1 -8 6 -8 6 0 11 -11 11 -24 0 -14 5 -28 11
-32 6 -3 9 -15 6 -25 -3 -11 -2 -19 2 -19 11 0 32 -50 26 -61 -4 -5 -2 -9 2
-9 5 0 15 -16 22 -35 7 -19 18 -35 24 -35 7 0 6 -4 -3 -10 -11 -7 -11 -10 -2
-10 7 0 11 -4 8 -9 -3 -5 1 -14 9 -21 8 -7 12 -16 9 -21 -3 -5 0 -9 5 -9 6 0
10 -3 10 -7 -3 -19 2 -34 9 -29 4 2 8 -3 8 -12 1 -29 8 -46 23 -58 8 -6 11
-18 8 -28 -4 -10 -3 -15 3 -11 6 3 10 1 10 -4 0 -6 -9 -11 -21 -11 -13 0 -18
4 -13 13 6 9 5 9 -7 0 -12 -10 -18 -10 -29 0 -10 9 -11 9 -6 0 4 -8 2 -13 -5
-13 -7 0 -10 -3 -6 -6 3 -4 0 -13 -8 -21 -8 -8 -15 -31 -15 -52 0 -20 -6 -43
-12 -50 -10 -11 -10 -13 0 -7 8 5 12 -3 12 -28 0 -19 4 -37 9 -40 4 -3 8 -16
7 -28 -1 -13 2 -25 6 -28 15 -11 14 -66 -1 -90 -11 -17 -12 -22 -3 -16 11 7
12 4 5 -10 -15 -30 -1 -133 20 -146 7 -4 8 -8 2 -8 -5 0 -4 -5 3 -12 7 -7 12
-22 12 -35 0 -13 5 -23 10 -23 6 0 10 -11 10 -25 0 -14 4 -25 10 -25 5 0 9 -3
8 -7 -6 -29 18 -86 43 -104 20 -14 29 -16 29 -7 0 10 2 10 8 0 7 -9 13 -8 27
8 10 11 22 17 26 14 5 -3 9 1 9 9 0 9 9 13 23 12 35 -4 37 -5 35 -12 -2 -10 9
-41 27 -76 8 -15 10 -25 5 -22 -6 3 -10 1 -10 -4 0 -6 5 -11 10 -11 6 0 10 -7
10 -16 0 -9 5 -12 12 -8 6 4 8 3 5 -3 -4 -6 0 -23 8 -39 7 -15 11 -32 8 -38
-3 -6 -3 -8 2 -4 8 7 25 -16 41 -52 25 -61 62 -122 77 -128 4 -2 7 -10 7 -18
0 -9 4 -13 9 -10 8 6 25 -30 22 -47 -1 -5 3 -6 8 -3 9 6 47 -44 43 -57 -1 -5
1 -7 5 -4 10 6 104 -89 96 -97 -4 -3 0 -6 9 -6 8 0 23 -9 33 -20 10 -11 22
-17 26 -14 5 3 9 -1 9 -9 0 -7 11 -20 25 -27 14 -7 25 -18 25 -24 0 -6 5 -4
10 4 8 13 10 12 10 -3 0 -10 15 -24 35 -34 19 -9 32 -20 29 -25 -3 -4 1 -8 8
-8 7 0 30 -11 50 -25 20 -14 45 -25 55 -25 15 0 16 -2 3 -10 -13 -8 -12 -10 5
-11 11 -1 24 -1 28 0 4 1 10 -6 13 -14 4 -8 14 -15 24 -15 10 0 23 -7 30 -15
7 -8 21 -15 32 -15 10 0 16 -4 13 -10 -3 -5 2 -10 12 -10 11 0 28 -7 39 -15
10 -8 27 -15 37 -15 9 0 17 -4 17 -9 0 -5 11 -12 25 -15 14 -4 25 -11 25 -17
0 -6 4 -8 9 -4 5 3 12 1 16 -5 4 -6 11 -8 16 -5 5 4 9 1 9 -6 0 -6 8 -9 20 -6
11 3 18 1 14 -4 -3 -5 0 -10 5 -10 14 -2 22 -4 41 -12 8 -3 37 -13 64 -22 26
-8 57 -20 68 -26 15 -8 19 -8 14 0 -4 6 -2 11 3 11 6 0 11 -5 11 -11 0 -6 6
-9 14 -6 8 3 17 3 20 -1 12 -11 36 -10 36 1 0 8 3 7 9 -1 6 -10 27 -12 82 -9
94 7 109 10 120 28 6 10 9 11 9 1 0 -9 5 -10 19 -3 10 6 22 7 26 3 5 -4 5 -1
1 6 -6 11 11 17 37 13 4 0 7 3 7 8 0 5 12 16 26 26 18 12 24 13 19 4 -4 -9 -2
-9 7 1 14 16 94 70 103 70 3 0 17 12 31 27 14 16 22 21 18 13 -5 -8 13 6 38
32 26 25 49 44 52 41 3 -4 6 -1 6 5 0 7 6 12 13 12 7 0 18 9 25 20 7 12 18 18
25 14 7 -4 9 -4 5 0 -10 12 35 54 51 48 8 -3 12 -1 8 5 -5 8 25 43 37 43 8 0
96 92 96 100 0 6 7 10 16 10 8 0 13 4 9 9 -3 6 1 13 8 18 7 4 24 23 37 40 13
18 30 33 37 33 8 0 11 5 8 11 -4 5 3 18 14 28 12 10 21 23 21 30 0 6 5 11 10
11 6 0 15 11 20 25 5 14 14 25 20 25 5 0 10 6 10 14 0 8 6 21 13 28 6 7 23 36
37 63 14 28 29 53 34 56 5 4 5 12 2 18 -4 6 -2 11 3 11 6 0 11 8 11 18 0 10 7
27 15 38 17 23 19 38 4 28 -6 -3 -3 6 7 21 10 16 20 34 21 42 2 7 4 19 6 26 1
6 7 18 11 26 6 10 5 12 -2 7 -8 -5 -10 -2 -6 8 3 9 10 16 16 16 5 0 7 4 4 8
-3 5 5 39 18 75 13 37 21 69 18 72 -3 3 -1 5 4 5 5 0 11 14 12 32 2 18 7 35
12 38 5 3 11 19 14 35 3 16 10 31 16 33 7 3 6 9 -2 20 -10 12 -10 14 0 8 6 -4
12 -2 12 3 0 23 2 26 17 35 13 7 13 10 2 17 -10 6 -11 9 -1 9 6 0 12 5 12 11
0 7 12 22 28 35 27 24 52 31 52 16 0 -5 8 -9 18 -10 34 -2 62 9 62 24 0 9 5
12 13 8 8 -5 8 -2 -2 9 -9 11 -10 17 -2 17 6 0 10 12 9 28 -1 15 2 34 7 42 5
8 10 30 11 50 1 19 5 49 8 65 3 17 7 40 9 52 2 12 6 25 9 29 4 3 3 17 -2 30
-5 13 -6 24 -2 24 5 0 8 11 8 25 0 14 -5 25 -10 25 -7 0 -8 3 -1 8 10 7 16
134 5 127 -3 -1 -6 22 -8 53 -2 31 -7 61 -11 67 -5 5 -7 18 -6 28 2 9 0 15 -5
12 -4 -3 -13 8 -19 23 -23 52 -91 83 -123 55 -26 -23 -34 -9 -31 54 1 32 2
108 2 168 0 61 0 119 0 129 0 11 -5 28 -10 39 -8 14 -8 17 0 13 6 -4 11 -3 11
3 0 5 -5 13 -10 16 -8 5 -8 11 0 20 7 9 8 14 0 17 -5 1 -10 35 -11 75 -1 52
-5 71 -13 66 -7 -4 -7 -1 1 8 10 12 10 18 0 29 -10 10 -9 11 3 5 12 -7 13 -6
4 6 -6 8 -12 28 -12 44 -1 17 -4 41 -8 55 -3 14 -5 40 -5 58 1 17 -2 32 -7 32
-5 0 -8 12 -8 28 1 15 -4 37 -11 50 -9 14 -10 22 -3 22 7 0 5 9 -4 22 -9 12
-16 32 -16 43 0 12 -5 26 -11 32 -6 6 -12 17 -13 24 -5 29 -29 68 -38 63 -5
-3 -7 -2 -6 3 5 18 -14 52 -33 58 -11 4 -18 9 -15 13 8 8 -24 42 -40 42 -8 0
-11 6 -7 17 4 11 3 14 -5 9 -8 -5 -12 2 -12 23 0 16 -4 32 -9 36 -6 3 -8 14
-6 25 2 11 0 20 -6 20 -5 0 -9 7 -9 15 0 8 -5 15 -11 15 -5 0 -7 5 -4 10 3 6
1 10 -4 10 -6 0 -11 7 -11 15 0 8 -7 15 -15 15 -9 0 -18 7 -21 15 -4 8 -12 15
-19 15 -7 0 -16 7 -19 16 -3 8 -9 13 -14 10 -4 -2 -9 7 -10 20 -1 14 -6 33
-11 43 -7 12 -6 22 2 31 7 8 8 11 1 7 -7 -4 -14 7 -18 32 -3 22 -17 50 -33 66
-16 16 -21 25 -13 20 13 -8 13 -6 1 8 -7 9 -18 14 -24 10 -6 -3 -7 -1 -3 5 3
6 -2 15 -11 21 -10 6 -14 11 -10 11 4 0 2 6 -5 14 -7 8 -16 12 -20 9 -5 -2 -8
0 -8 4 0 5 -25 19 -55 32 -30 13 -55 28 -55 32 0 5 -7 6 -15 3 -8 -4 -15 -2
-15 4 0 5 -11 13 -25 16 -14 4 -25 11 -25 16 0 6 -9 10 -20 10 -13 0 -17 5
-14 14 3 9 -3 17 -15 21 -12 3 -21 11 -21 16 0 5 -11 9 -25 9 -14 0 -25 5 -25
10 0 6 -9 10 -21 10 -11 0 -17 5 -14 10 5 9 -27 15 -39 8 -2 -2 -13 6 -25 16
-12 11 -21 14 -21 7 0 -8 -8 -6 -25 5 -13 8 -29 13 -35 9 -5 -3 -10 -2 -10 4
0 9 -65 28 -82 23 -5 -1 -8 2 -8 6 0 5 -13 9 -30 10 -16 0 -35 4 -42 9 -7 4
-24 9 -38 10 -14 1 -35 4 -47 7 -12 2 -50 6 -85 7 -34 1 -71 6 -80 10 -10 6
-19 5 -23 -1 -3 -5 -14 -10 -23 -10 -15 0 -15 2 -2 10 9 6 10 10 3 10 -6 0
-15 -4 -18 -10 -3 -5 -11 -10 -16 -10 -6 0 -8 4 -5 8 3 5 -1 9 -9 9 -8 0 -12
-3 -10 -6z"/>
</g>
</svg>
